<svg xmlns="http://www.w3.org/2000/svg" width="1600" height="900" viewBox="0 0 1600 900">
  <rect width="1600" height="900" fill="#2b2118"/>
  <circle cx="1230" cy="170" r="125" fill="#9f4f2f" opacity="0.6"/>
  <path d="M0 690 C240 610 410 650 610 590 C850 520 1040 620 1240 560 C1390 515 1500 545 1600 500 L1600 900 L0 900 Z" fill="#6b2f1a"/>
  <path d="M0 770 C260 700 470 735 690 680 C900 620 1110 690 1300 650 C1450 620 1530 630 1600 605 L1600 900 L0 900 Z" fill="#4a4038"/>
  <g transform="translate(690 245)" opacity="0.35">
    <path d="M110 0 C40 0 0 48 0 110 C0 165 38 210 95 220 L95 145 C75 136 62 116 62 92 C62 58 87 32 122 32 C156 32 182 58 182 92 C182 119 166 141 142 149 L142 220 C206 208 245 160 245 103 C245 45 197 0 110 0Z" fill="#fff6e7"/>
    <rect x="90" y="205" width="60" height="210" rx="25" fill="#fff6e7"/>
  </g>
</svg>
